<svg xmlns="http://www.w3.org/2000/svg" viewBox="0 0 510.66 510.66" id="machine-learning"><g data-name="Layer 2"><g data-name="5697 - Machine Learning"><path fill="#1f140f" d="M250.32,452.05a10,10,0,0,1-10-10V68.61a10,10,0,0,1,20,0V442.05A10,10,0,0,1,250.32,452.05Z"></path><path fill="#1f140f" d="M193.1 510.66a67.06 67.06 0 110-134.11 10 10 0 010 20 47.06 47.06 0 1047.22 47.06 10 10 0 0120 0A67.21 67.21 0 01193.1 510.66zM193.1 134.11a67.06 67.06 0 1167.22-67.06 10 10 0 11-20 0 47.22 47.22 0 10-47.22 47.06 10 10 0 010 20z"></path><path fill="#1f140f" d="M135.88 442.2a78.66 78.66 0 01-78.66-78.47 77.72 77.72 0 013-21.57 101.19 101.19 0 010-185.07 77.72 77.72 0 01-3-21.57 78.66 78.66 0 0178.66-78.47 10 10 0 010 20 58.64 58.64 0 00-58.66 58.47 57.91 57.91 0 004.89 23.37 10 10 0 01-6 13.52 81.2 81.2 0 000 154.43 10 10 0 016 13.52 57.91 57.91 0 00-4.89 23.37 58.64 58.64 0 0058.66 58.47 10 10 0 010 20zM369.27 459.38a10 10 0 01-7.07-2.93l-25.9-25.9h-86a10 10 0 010-20h90.12a10 10 0 017.08 2.93l28.82 28.83a10 10 0 01-7.07 17.07z"></path><path fill="#1f140f" d="M390.51 510.66a40 40 0 1140-40A40.08 40.08 0 01390.51 510.66zm0-60.08a20 20 0 1020 20A20.06 20.06 0 00390.51 450.58zM409.33 369.26a10 10 0 01-7.07-2.93l-25.9-25.9h-126a10 10 0 010-20H380.5a10 10 0 017.07 2.93l28.83 28.83a10 10 0 01-7.07 17.07z"></path><path fill="#1f140f" d="M430.57 420.54a40 40 0 1140-40A40.08 40.08 0 01430.57 420.54zm0-60.08a20 20 0 1020 20A20.06 20.06 0 00430.57 360.46zM380.5 200.24H250.32a10 10 0 010-20h126l25.9-25.9a10 10 0 0114.14 14.14l-28.83 28.83A10 10 0 01380.5 200.24z"></path><path fill="#1f140f" d="M430.57 180.22a40 40 0 1140-40A40.09 40.09 0 01430.57 180.22zm0-60.09a20 20 0 1020 20.05A20.06 20.06 0 00430.57 120.13zM470.62 295.37a40 40 0 1140-40A40.08 40.08 0 01470.62 295.37zm0-60.08a20 20 0 1020 20A20.06 20.06 0 00470.62 235.29z"></path><path fill="#1f140f" d="M440.58 265.33H250.32a10 10 0 010-20H440.58a10 10 0 110 20zM340.44 100.11H250.32a10 10 0 010-20h86l25.9-25.9a10 10 0 0114.14 14.14L347.52 97.18A10 10 0 01340.44 100.11z"></path><path fill="#1f140f" d="M390.51,80.08a40,40,0,1,1,40-40A40.08,40.08,0,0,1,390.51,80.08Zm0-60.08a20,20,0,1,0,20,20A20.06,20.06,0,0,0,390.51,20Z"></path></g></g></svg>